<?xml version="1.0" encoding="UTF-8"?>
<svg version="1.1" xmlns="http://www.w3.org/2000/svg" width="500" height="500">
<path d="M0 0 C0.64141937 0.21520294 1.28283875 0.43040588 1.94369507 0.65213013 C21.18144271 7.15015444 38.89872507 15.79173242 55.5 27.5 C56.57378906 28.24894531 57.64757812 28.99789062 58.75390625 29.76953125 C65.6069985 34.72841808 71.76091167 40.27946802 77.8828125 46.09375 C80.24436346 48.48724364 80.24436346 48.48724364 82.5 49.5 C82.5 50.16 82.5 50.82 82.5 51.5 C83.16 51.5 83.82 51.5 84.5 51.5 C84.5 52.16 84.5 52.82 84.5 53.5 C85.16 53.5 85.82 53.5 86.5 53.5 C86.5 54.16 86.5 54.82 86.5 55.5 C87.16 55.5 87.82 55.5 88.5 55.5 C90.06432787 57.19274284 91.55328572 58.95569852 93 60.75 C94.19109375 62.21179688 94.19109375 62.21179688 95.40625 63.703125 C97.08748034 65.94894762 98.38135899 67.9465803 99.5 70.5 C100.16 70.5 100.82 70.5 101.5 70.5 C102.92894424 72.3186563 104.26638978 74.20940853 105.5625 76.125 C106.15695923 77.00309326 106.15695923 77.00309326 106.76342773 77.89892578 C108.01751425 79.76037147 109.25949139 81.62948465 110.5 83.5 C110.88671875 84.07685547 111.2734375 84.65371094 111.671875 85.24804688 C132.40736062 116.24475739 144.84729443 153.01126977 145.5 190.5 C145.51514648 191.345625 145.53029297 192.19125 145.54589844 193.0625 C145.64026422 199.54381827 145.61648202 206.01913857 145.5 212.5 C145.48743164 213.21124023 145.47486328 213.92248047 145.46191406 214.65527344 C144.1951521 266.59251374 119.91417906 315.24838423 83.5 351.5 C82.48451861 352.53662684 81.4702454 353.57443827 80.45703125 354.61328125 C79.40889967 355.67973223 78.36072214 356.74613804 77.3125 357.8125 C76.77947266 358.36228516 76.24644531 358.91207031 75.69726562 359.47851562 C74.33575044 360.85715678 72.92159498 362.18339727 71.5 363.5 C70.84 363.5 70.18 363.5 69.5 363.5 C69.5 364.16 69.5 364.82 69.5 365.5 C67.18614495 367.4489896 64.86779493 369.26811558 62.4375 371.0625 C61.3551709 371.86723755 61.3551709 371.86723755 60.25097656 372.68823242 C53.81762939 377.39961412 47.14220877 381.54876992 40.22558594 385.50488281 C38.58883836 386.44876837 36.96958706 387.42280483 35.3515625 388.3984375 C17.27705198 399.26211968 -2.12149989 405.57327457 -22.5 410.5 C-23.42039062 410.72558594 -24.34078125 410.95117188 -25.2890625 411.18359375 C-27.68605251 411.71488535 -30.07332114 412.12638577 -32.5 412.5 C-33.59957031 412.68433594 -34.69914063 412.86867188 -35.83203125 413.05859375 C-58.26815358 416.38727789 -83.15811217 416.24488554 -105.40527344 411.90576172 C-107.36992357 411.52519662 -109.34507652 411.20003357 -111.3203125 410.87890625 C-140.15135356 405.86616585 -166.34592565 392.61555439 -190.5 376.5 C-191.55719238 375.79786377 -191.55719238 375.79786377 -192.63574219 375.08154297 C-194.29707805 373.94389811 -195.90522661 372.72921541 -197.5 371.5 C-197.5 370.84 -197.5 370.18 -197.5 369.5 C-198.16 369.314375 -198.82 369.12875 -199.5 368.9375 C-203.76905268 366.89191226 -207.24163706 363.92815357 -210.5 360.5 C-210.5 359.84 -210.5 359.18 -210.5 358.5 C-211.82 357.84 -213.14 357.18 -214.5 356.5 C-214.5 355.84 -214.5 355.18 -214.5 354.5 C-215.3353125 354.1596875 -215.3353125 354.1596875 -216.1875 353.8125 C-219.16159588 352.12449964 -221.22008865 350.03323483 -223.5 347.5 C-223.5 346.84 -223.5 346.18 -223.5 345.5 C-224.16 345.5 -224.82 345.5 -225.5 345.5 C-225.5 344.84 -225.5 344.18 -225.5 343.5 C-226.16 343.5 -226.82 343.5 -227.5 343.5 C-229.42091885 341.30932248 -231.22070305 339.1136321 -233 336.8125 C-233.74830078 335.87374023 -233.74830078 335.87374023 -234.51171875 334.91601562 C-237.11977305 331.5772866 -239.18707874 328.58724891 -240.5 324.5 C-241.16 324.5 -241.82 324.5 -242.5 324.5 C-244.33027132 321.99286217 -246.02543574 319.49119677 -247.6875 316.875 C-248.42625366 315.72269897 -248.42625366 315.72269897 -249.17993164 314.54711914 C-253.47391476 307.74462355 -257.06147284 300.76650076 -260.5 293.5 C-261.18429557 292.20663284 -261.87129482 290.91468772 -262.5625 289.625 C-273.95834474 266.63850976 -280.02617942 239.02095694 -280.5 213.5 C-280.52046387 212.53610352 -280.54092773 211.57220703 -280.56201172 210.57910156 C-281.51470969 158.03111573 -268.31758059 111.90351059 -235.82324219 70.20654297 C-234.61784031 68.65197487 -233.43645862 67.07885672 -232.2578125 65.50390625 C-231.63648438 64.67761719 -231.01515625 63.85132812 -230.375 63 C-229.85679687 62.3090625 -229.33859375 61.618125 -228.8046875 60.90625 C-228.37414062 60.4421875 -227.94359375 59.978125 -227.5 59.5 C-226.84 59.5 -226.18 59.5 -225.5 59.5 C-225.5 58.84 -225.5 58.18 -225.5 57.5 C-224.84 57.5 -224.18 57.5 -223.5 57.5 C-223.25121094 56.92636719 -223.00242188 56.35273437 -222.74609375 55.76171875 C-207.01812022 27.21470723 -157.97198278 6.35150852 -128.5 -2.5 C-86.37346396 -13.93016319 -41.58691149 -14.00935472 0 0 Z M-156.31640625 107.34375 C-174.96401072 130.32460981 -172.86604649 165.28554743 -172.81567383 192.97753906 C-172.81102436 195.7462582 -172.81805179 198.51453991 -172.83618164 201.28320312 C-173.31099085 243.22729082 -173.31099085 243.22729082 -154.5 279.5 C-152.36263119 281.13680123 -152.36263119 281.13680123 -150.125 282.25 C-149.41601562 282.63671875 -148.70703125 283.0234375 -147.9765625 283.421875 C-140.76325151 286.56205455 -134.36623705 286.83645254 -126.5625 286.8125 C-125.51642578 286.82861328 -124.47035156 286.84472656 -123.39257812 286.86132812 C-112.16460988 286.8683853 -103.72204599 283.21628422 -95.43359375 275.6015625 C-89.50007302 269.35452894 -85.48137763 262.06239326 -81.5 254.5 C-80.89027344 253.35015625 -80.28054687 252.2003125 -79.65234375 251.015625 C-75.37740602 242.7100317 -71.76890955 234.24408004 -68.5 225.5 C-67.89091797 223.9221875 -67.89091797 223.9221875 -67.26953125 222.3125 C-66.49385005 219.47752304 -66.46173952 218.19947725 -67.5 215.5 C-67.86738281 216.46873047 -67.86738281 216.46873047 -68.2421875 217.45703125 C-84.97420787 259.6332619 -84.97420787 259.6332619 -101.86328125 267.6171875 C-107.3867395 269.46652315 -114.01647253 269.61624523 -119.375 267.125 C-128.67341425 260.68934336 -130.05533329 245.73241949 -132.12109375 235.390625 C-135.34196603 216.51481538 -135.85083966 197.31396301 -135.81567383 178.21240234 C-135.81250865 174.63478195 -135.83611364 171.0579883 -135.86132812 167.48046875 C-135.89467141 155.87242709 -135.53618897 144.40814601 -134.23046875 132.8671875 C-134.12237381 131.86712677 -134.01427887 130.86706604 -133.90290833 129.83670044 C-132.87965373 121.80679159 -131.24255028 113.64399131 -125.0625 108 C-120.36866565 104.47962424 -116.3085859 103.01002382 -110.4296875 103.1875 C-107.1988621 103.71071059 -105.64565998 105.10190943 -103.5 107.5 C-99.19391844 118.21232221 -101.67137773 130.15691233 -103.43237305 141.21508789 C-104.14234317 145.69780136 -104.67993166 149.94173121 -104.5 154.5 C-101.75397936 154.41923469 -99.9956463 153.92778275 -97.90234375 152.12109375 C-90.42586096 143.9098215 -90.90796045 134.09894956 -91.1171875 123.5703125 C-91.41890867 117.62488593 -92.90455469 113.26396504 -96.5 108.5 C-97.5828125 106.89125 -97.5828125 106.89125 -98.6875 105.25 C-106.70187466 97.41372255 -115.38134007 94.48430507 -126.375 94.1875 C-138.72741743 94.43744242 -147.5618198 98.45737408 -156.31640625 107.34375 Z M11.5 93.5 C5.4871398 105.25240857 5.89124509 119.74201673 4.9375 132.6875 C4.74999042 135.21899975 4.56096201 137.75033418 4.36671448 140.28132629 C4.24693316 141.84245584 4.13100199 143.4038868 4.01939392 144.96562195 C3.61260322 150.27479357 3.61260322 150.27479357 2.5 152.5 C-4.76 152.5 -12.02 152.5 -19.5 152.5 C-20.79181068 147.97866261 -21.79052572 144.1723049 -22.4375 139.625 C-23.71796162 129.64888309 -23.71796162 129.64888309 -29.625 122.125 C-30.89688453 121.53838659 -32.19095371 120.99820014 -33.5 120.5 C-34.19480469 120.22671875 -34.88960937 119.9534375 -35.60546875 119.671875 C-43.23196994 116.91823563 -50.70493184 115.37657544 -58.82421875 115.44921875 C-60.42463013 115.46021606 -60.42463013 115.46021606 -62.05737305 115.47143555 C-62.86343994 115.48086182 -63.66950684 115.49028809 -64.5 115.5 C-64.66975565 136.78873286 -64.66975565 136.78873286 -64 158.0625 C-63.54577134 167.10287789 -63.32523503 176.13661475 -63.25 185.1875 C-63.22873047 186.42894775 -63.20746094 187.67039551 -63.18554688 188.94946289 C-63.15879302 196.04257957 -63.866175 202.19347925 -65.95019531 208.98754883 C-66.52290141 211.60465295 -66.38254626 213.00420893 -65.5 215.5 C-64.84 214.51 -64.18 213.52 -63.5 212.5 C-63.20308623 215.68708502 -62.91142623 218.87446291 -62.625 222.0625 C-62.53404053 223.07449463 -62.44308105 224.08648926 -62.34936523 225.12915039 C-61.76268082 231.87526189 -61.29937445 238.62008812 -60.91197205 245.38049316 C-60.68720418 265.46413938 -60.68720418 265.46413938 -55.5 284.5 C-44.14113356 283.72553183 -33.1219303 277.68061364 -24.5 270.5 C-20.19025675 265.3528646 -19.92153626 261.43861698 -19.9699707 255.0222168 C-19.96123932 254.08660416 -19.95250793 253.15099152 -19.94351196 252.18702698 C-19.91919599 249.10756078 -19.92254231 246.02876852 -19.92578125 242.94921875 C-19.9133361 240.80783443 -19.89900188 238.66646033 -19.88285828 236.52510071 C-19.84485472 230.89816167 -19.82964649 225.2713987 -19.82006836 219.64434814 C-19.80030999 210.61971289 -19.74362748 201.59521167 -19.69130516 192.57071877 C-19.67590698 189.41250569 -19.66875923 186.25435918 -19.66316223 183.09611511 C-19.65615029 181.17434658 -19.64904971 179.25257837 -19.6418457 177.33081055 C-19.64263878 176.00383652 -19.64263878 176.00383652 -19.64344788 174.65005493 C-19.61321946 168.61321946 -19.61321946 168.61321946 -18.5 167.5 C-16.93827255 167.41314397 -15.37270656 167.39297781 -13.80859375 167.40234375 C-12.86435547 167.40556641 -11.92011719 167.40878906 -10.94726562 167.41210938 C-9.95404297 167.42048828 -8.96082031 167.42886719 -7.9375 167.4375 C-6.94041016 167.44201172 -5.94332031 167.44652344 -4.91601562 167.45117188 C-2.44395151 167.46299993 0.02799518 167.47948151 2.5 167.5 C2.52061493 168.17316757 2.54122986 168.84633514 2.56246948 169.53990173 C3.76281572 209.50386401 3.76281572 209.50386401 5.32647705 249.45462036 C5.39947297 251.1281693 5.46839902 252.80190161 5.53289795 254.47579956 C5.4945029 270.59401257 5.4945029 270.59401257 11.40209961 284.82617188 C13.48392704 286.7811949 13.48392704 286.7811949 16.75 286.9375 C21.78253864 286.35037049 26.3185512 285.38893635 30.21875 282.01171875 C32.26808509 277.99427221 31.85065258 274.00064991 31.75 269.5625 C31.74226563 268.25055664 31.74226563 268.25055664 31.734375 266.91210938 C31.67801947 262.06201122 31.4233117 257.2590143 31.01953125 252.42578125 C30.34691456 244.16646186 30.13884054 235.90658741 29.9375 227.625 C29.91632111 226.79692841 29.89514221 225.96885681 29.87332153 225.11569214 C29.3894455 205.91110335 29.39705684 186.70919372 29.5 167.5 C30.43972656 167.20738281 31.37945312 166.91476563 32.34765625 166.61328125 C35.77566579 165.40264591 37.39121475 164.45229934 39.5 161.5 C39.97752677 158.95683262 39.97752677 158.95683262 38.5 156.5 C37.17606722 155.80117264 35.83237609 155.13931943 34.4777832 154.50195312 C31.90194818 152.93610035 30.7189409 152.16937999 29.77157593 149.27294922 C29.52670219 146.45685123 29.52290391 143.73188562 29.60546875 140.90625 C29.59982658 139.36982849 29.59982658 139.36982849 29.59407043 137.80236816 C29.58776701 134.53355043 29.63481564 131.26835491 29.6875 128 C29.71371599 124.73238189 29.72853813 121.46535556 29.72737122 118.19763184 C29.72939833 116.16636647 29.74864714 114.13502731 29.78715515 112.10412598 C29.84146861 105.30751766 29.84146861 105.30751766 26.5 99.5 C21.85026572 95.62522143 17.32179553 94.48323658 11.5 93.5 Z " fill="#FBFBFC" transform="translate(320.5,52.5)"/>
<path d="M0 0 C0 3 0 3 -1.75 5.1875 C-4 7 -4 7 -8 7 C-8 32.41 -8 57.82 -8 84 C-8.33 84 -8.66 84 -9 84 C-10.293615 39.13977128 -10.293615 39.13977128 -10.02832031 22.46630859 C-10.00182984 20.15935425 -10.02420396 17.85754468 -10.0546875 15.55078125 C-9.93138953 6.98157215 -9.93138953 6.98157215 -7.1875 4.08984375 C-5.16137366 2.79095204 -3.23890003 1.86371359 -1 1 C-0.67 0.67 -0.34 0.34 0 0 Z " fill="#95979F" transform="translate(359,214)"/>
<path d="M0 0 C0.66 0.33 1.32 0.66 2 1 C2.33 7.93 2.66 14.86 3 22 C1 18 1 18 1 16 C-2.54518884 17.39759905 -2.54518884 17.39759905 -6 19 C-4.3186083 12.51292846 -2.46937673 6.2322365 0 0 Z " fill="#B8BFCD" transform="translate(256,264)"/>
<path d="M0 0 C0 0.33 0 0.66 0 1 C-0.67466309 1.01981934 -1.34932617 1.03963867 -2.04443359 1.06005859 C-5.15495861 1.1563811 -8.26490789 1.2656181 -11.375 1.375 C-12.96634766 1.42140625 -12.96634766 1.42140625 -14.58984375 1.46875 C-20.50494726 1.68648387 -25.99309062 2.32053452 -31.76708984 3.59912109 C-34.96010168 4.17236901 -37.91206101 3.96680202 -41.125 3.625 C-42.24132812 3.51414063 -43.35765625 3.40328125 -44.5078125 3.2890625 C-45.33023438 3.19367187 -46.15265625 3.09828125 -47 3 C-47 2.67 -47 2.34 -47 2 C-31.32154654 -0.1625453 -15.80740347 -0.22113015 0 0 Z " fill="#898F9C" transform="translate(266,42)"/>
<path d="M0 0 C0.33 0.99 0.66 1.98 1 3 C-1.4446007 6.25946759 -4.05708577 9.18503856 -7 12 C-7.721875 12.721875 -8.44375 13.44375 -9.1875 14.1875 C-10.0846875 15.0846875 -10.0846875 15.0846875 -11 16 C-11.66 15.67 -12.32 15.34 -13 15 C-12.04956626 13.66102417 -11.08940853 12.32894573 -10.125 11 C-9.32449219 9.88625 -9.32449219 9.88625 -8.5078125 8.75 C-8.01023437 8.1725 -7.51265625 7.595 -7 7 C-6.34 7 -5.68 7 -5 7 C-5 6.34 -5 5.68 -5 5 C-4.34 5 -3.68 5 -3 5 C-2.690625 4.360625 -2.38125 3.72125 -2.0625 3.0625 C-1 1 -1 1 0 0 Z " fill="#AFB7BE" transform="translate(100,105)"/>
<path d="M0 0 C0.33 0 0.66 0 1 0 C1.33 9.57 1.66 19.14 2 29 C1.34 29 0.68 29 0 29 C-0.87562914 25.30584744 -1.06117252 22.04880677 -0.87890625 18.26171875 C-0.80639648 16.66166992 -0.80639648 16.66166992 -0.73242188 15.02929688 C-0.67634766 13.92650391 -0.62027344 12.82371094 -0.5625 11.6875 C-0.51029297 10.56537109 -0.45808594 9.44324219 -0.40429688 8.28710938 C-0.2749801 5.52443291 -0.14002857 2.76215082 0 0 Z " fill="#676E7B" transform="translate(259,288)"/>
<path d="M0 0 C0.33 0.99 0.66 1.98 1 3 C0.34 3 -0.32 3 -1 3 C-1.33 3.66 -1.66 4.32 -2 5 C-2.928125 4.95875 -3.85625 4.9175 -4.8125 4.875 C-8.15809719 4.72863661 -8.15809719 4.72863661 -11 7 C-13.1875 6.625 -13.1875 6.625 -15 6 C-12.87717331 4.99539469 -10.75166979 3.99644398 -8.625 3 C-7.44164062 2.443125 -6.25828125 1.88625 -5.0390625 1.3125 C-2 0 -2 0 0 0 Z " fill="#B0B6BA" transform="translate(172,58)"/>
<path d="M0 0 C0 3 0 3 -1.75 5.1875 C-4 7 -4 7 -8 7 C-8 10.63 -8 14.26 -8 18 C-8.33 18 -8.66 18 -9 18 C-9.47054874 13.90230475 -9.71658268 10.07655926 -9 6 C-6.66473114 3.49232874 -4.13091458 2.30399614 -1 1 C-0.67 0.67 -0.34 0.34 0 0 Z " fill="#B3B7BF" transform="translate(359,214)"/>
<path d="M0 0 C0.763125 0.20625 1.52625 0.4125 2.3125 0.625 C0.05652173 2.88097827 -1.73353867 3.59074192 -4.6875 4.75 C-5.574375 5.10320312 -6.46125 5.45640625 -7.375 5.8203125 C-9.6875 6.625 -9.6875 6.625 -11.6875 6.625 C-11.3575 5.305 -11.0275 3.985 -10.6875 2.625 C-9.0375 2.955 -7.3875 3.285 -5.6875 3.625 C-5.6875 2.965 -5.6875 2.305 -5.6875 1.625 C-2.6875 -0.375 -2.6875 -0.375 0 0 Z " fill="#A7ADB7" transform="translate(333.6875,449.375)"/>
<path d="M0 0 C0.66 0.33 1.32 0.66 2 1 C1.67 3.64 1.34 6.28 1 9 C0.01 9 -0.98 9 -2 9 C-2.33 10.32 -2.66 11.64 -3 13 C-4.39943663 10.20112673 -3.54753576 8.87861172 -2.625 5.9375 C-2.34914062 5.03902344 -2.07328125 4.14054687 -1.7890625 3.21484375 C-1 1 -1 1 0 0 Z " fill="#A4ABBD" transform="translate(256,264)"/>
<path d="M0 0 C-1.22556737 4.37702633 -2.53060547 8.69677317 -4 13 C-4.66 11.68 -5.32 10.36 -6 9 C-5.34 9 -4.68 9 -4 9 C-4.226875 8.071875 -4.45375 7.14375 -4.6875 6.1875 C-5 3 -5 3 -3.6875 1.125 C-2 0 -2 0 0 0 Z " fill="#B6BEC2" transform="translate(255,262)"/>
<path d="M0 0 C1.20767624 2.41535248 0.97793036 3.47846408 0.66015625 6.1328125 C0.56669922 6.93847656 0.47324219 7.74414062 0.37695312 8.57421875 C0.27318359 9.41597656 0.16941406 10.25773438 0.0625 11.125 C-0.03740234 11.97449219 -0.13730469 12.82398438 -0.24023438 13.69921875 C-0.48809384 15.80012277 -0.74335185 17.90015149 -1 20 C-1.33 20 -1.66 20 -2 20 C-2.24858198 17.22965863 -2.47452879 14.46060931 -2.6875 11.6875 C-2.76033203 10.90181641 -2.83316406 10.11613281 -2.90820312 9.30664062 C-2.96298828 8.54931641 -3.01777344 7.79199219 -3.07421875 7.01171875 C-3.13182373 6.31522217 -3.18942871 5.61872559 -3.2487793 4.90112305 C-2.92238821 2.40690575 -1.8898183 1.5788082 0 0 Z " fill="#94989D" transform="translate(151,189)"/>
<path d="M0 0 C0.680625 -0.01675781 1.36125 -0.03351563 2.0625 -0.05078125 C4.52451507 0.41084658 5.41181179 1.43148959 7 3.3125 C-2.41002278 3.49701025 -2.41002278 3.49701025 -7 2.3125 C-4.03082597 0.33305064 -3.34297721 0.01899419 0 0 Z " fill="#A5A8B4" transform="translate(208,154.6875)"/>
<path d="M0 0 C2 3 2 3 2 5 C0.824375 5.4640625 0.824375 5.4640625 -0.375 5.9375 C-2.92330128 6.92875038 -2.92330128 6.92875038 -5 8 C-3.375 2.25 -3.375 2.25 0 0 Z " fill="#DADEE2" transform="translate(255,275)"/>
<path d="M0 0 C0 0.66 0 1.32 0 2 C-1.1446875 2.6496875 -1.1446875 2.6496875 -2.3125 3.3125 C-5.34395518 5.21597186 -6.23737591 6.95546748 -8 10 C-8.99 10.33 -9.98 10.66 -11 11 C-9.7672897 6.34309441 -5.30909278 0 0 0 Z " fill="#9DA1AF" transform="translate(201,157)"/>
<path d="M0 0 C2.97 0.495 2.97 0.495 6 1 C6 1.66 6 2.32 6 3 C6.99 3.33 7.98 3.66 9 4 C9 5.65 9 7.3 9 9 C7.87105124 8.06725891 6.74699124 7.12859878 5.625 6.1875 C4.99851563 5.66542969 4.37203125 5.14335937 3.7265625 4.60546875 C2 3 2 3 0 0 Z " fill="#B2B5C6" transform="translate(215,152)"/>
<path d="M0 0 C0.66 0 1.32 0 2 0 C2 0.66 2 1.32 2 2 C2.598125 2.061875 3.19625 2.12375 3.8125 2.1875 C6.91373958 3.33938899 7.64108103 5.06759592 9 8 C8.67 8.66 8.34 9.32 8 10 C6.5 8.625 6.5 8.625 5 7 C5 6.34 5 5.68 5 5 C4.34 5 3.68 5 3 5 C3 4.34 3 3.68 3 3 C2.34 3 1.68 3 1 3 C0.67 2.01 0.34 1.02 0 0 Z " fill="#A9ADB4" transform="translate(92,393)"/>
<path d="M0 0 C0.99 0.33 1.98 0.66 3 1 C0.525 5.455 0.525 5.455 -2 10 C-2.66 9.01 -3.32 8.02 -4 7 C-3.01 6.67 -2.02 6.34 -1 6 C-0.67 4.02 -0.34 2.04 0 0 Z " fill="#ACB6BC" transform="translate(441,349)"/>
<path d="M0 0 C0.66 0.33 1.32 0.66 2 1 C4.04055005 1.07065617 6.08334257 1.08421976 8.125 1.0625 C9.22070312 1.05347656 10.31640625 1.04445313 11.4453125 1.03515625 C12.70988281 1.01775391 12.70988281 1.01775391 14 1 C10.64802157 3.23465229 9.42208754 3.27108649 5.5 3.25 C4.06140625 3.25773437 4.06140625 3.25773437 2.59375 3.265625 C0 3 0 3 -3 1 C-2.01 0.67 -1.02 0.34 0 0 Z " fill="#ADB2B7" transform="translate(205,319)"/>
<path d="M0 0 C0.99 0.33 1.98 0.66 3 1 C0.525 4.465 0.525 4.465 -2 8 C-2.66 7.01 -3.32 6.02 -4 5 C-3.34 4.01 -2.68 3.02 -2 2 C-1.34 2 -0.68 2 0 2 C0 1.34 0 0.68 0 0 Z " fill="#C6CBD3" transform="translate(430,368)"/>
<path d="M0 0 C-1.98 1.32 -3.96 2.64 -6 4 C-6.66 3.67 -7.32 3.34 -8 3 C-7.67 2.01 -7.34 1.02 -7 0 C-3.86650268 -1.04449911 -3.01031744 -0.93423645 0 0 Z " fill="#B6BCCD" transform="translate(367,434)"/>
<path d="M0 0 C0.99 0 1.98 0 3 0 C3 0.99 3 1.98 3 3 C3.99 3.33 4.98 3.66 6 4 C5.67 5.32 5.34 6.64 5 8 C0 2.25 0 2.25 0 0 Z " fill="#A0A3A9" transform="translate(84,383)"/>
<path d="M0 0 C0.66 0 1.32 0 2 0 C2 2.64 2 5.28 2 8 C1.34 8 0.68 8 0 8 C-0.79953138 4.71303767 -1.09658936 3.28976808 0 0 Z " fill="#A8B1BB" transform="translate(259,309)"/>
<path d="M0 0 C0.66 0.33 1.32 0.66 2 1 C2 1.66 2 2.32 2 3 C3.32 2.67 4.64 2.34 6 2 C5.67 2.99 5.34 3.98 5 5 C2.03 4.01 -0.94 3.02 -4 2 C-2.68 1.34 -1.36 0.68 0 0 Z " fill="#AAAEB3" transform="translate(210,147)"/>
<path d="M0 0 C0.99 0.33 1.98 0.66 3 1 C2.34 2.65 1.68 4.3 1 6 C0.01 6 -0.98 6 -2 6 C-1.34 4.02 -0.68 2.04 0 0 Z " fill="#C2C9D8" transform="translate(434,360)"/>
<path d="M0 0 C0.66 1.32 1.32 2.64 2 4 C1.01 5.485 1.01 5.485 0 7 C-1.32 6.67 -2.64 6.34 -4 6 C-2.68 4.02 -1.36 2.04 0 0 Z " fill="#BFC3CE" transform="translate(299,317)"/>
<path d="M0 0 C0.66 0.33 1.32 0.66 2 1 C-0.83430453 4.2542015 -2.68607774 5.5206753 -7 6 C-2.25 1.125 -2.25 1.125 0 0 Z " fill="#ABB1BA" transform="translate(136,76)"/>
</svg>
